<svg xmlns="http://www.w3.org/2000/svg" viewBox="0 0 32 32">
  <rect width="32" height="32" fill="#0a0c0d"/>
  <rect x="0.5" y="0.5" width="31" height="31" stroke="#f5a623" stroke-width="1" fill="none"/>
  <line x1="16" y1="4"  x2="16" y2="11" stroke="#f5a623" stroke-width="1.5" stroke-linecap="round"/>
  <line x1="16" y1="21" x2="16" y2="28" stroke="#f5a623" stroke-width="1.5" stroke-linecap="round"/>
  <line x1="4"  y1="16" x2="11" y2="16" stroke="#f5a623" stroke-width="1.5" stroke-linecap="round"/>
  <line x1="21" y1="16" x2="28" y2="16" stroke="#f5a623" stroke-width="1.5" stroke-linecap="round"/>
  <circle cx="16" cy="16" r="3.5" stroke="#f5a623" stroke-width="1.2" fill="none"/>
  <circle cx="16" cy="16" r="1"   fill="#f5a623"/>
  <path d="M5 5 L5 9 M5 5 L9 5"          stroke="#f5a623" stroke-width="1" fill="none" stroke-linecap="round"/>
  <path d="M27 5 L27 9 M27 5 L23 5"      stroke="#f5a623" stroke-width="1" fill="none" stroke-linecap="round"/>
  <path d="M5 27 L5 23 M5 27 L9 27"      stroke="#f5a623" stroke-width="1" fill="none" stroke-linecap="round"/>
  <path d="M27 27 L27 23 M27 27 L23 27"  stroke="#f5a623" stroke-width="1" fill="none" stroke-linecap="round"/>
</svg>
